# xmcd CD database file
#
# Track frame offsets:
#	150
#	18747
#	33385
#	53592
#	77747
#	97302
#	120375
#	137582
#	157415
#	179617
#	202722
#	219505
#	246530
#
# Disc length: 4440 seconds
#
# Revision: 0
# Processed by: cddbd v1.5PL3 Copyright (c) Steve Scherf et al.
# Submitted via: CDex 1.51
#
DISCID=ba11560d
DTITLE=DO As Infinity - GATE OF HEAVEN
DYEAR=1900
DGENRE=Pop
TTITLE0=Gates of heaven 
TTITLE1=本日ハ晴天ナリ 
TTITLE2=柊
TTITLE3=アザヤカナハナ 
TTITLE4=魔法の言葉〜Would you marry me?〜
TTITLE5=ブランコ
TTITLE6=D/N/A
TTITLE7=Weeds
TTITLE8=Field of dreams
TTITLE9=科学の夜
TTITLE10=Thanksgiving Day
TTITLE11=Bonus Track. 本日ハ晴天ナリ
TTITLE12=Live
EXTD=
EXTT0=
EXTT1=
EXTT2=
EXTT3=
EXTT4=
EXTT5=
EXTT6=
EXTT7=
EXTT8=
EXTT9=
EXTT10=
EXTT11=
EXTT12=
PLAYORDER=
